# xmcd
#
# Track frame offsets:
#	150
#	13021
#	29534
#	44963
#	67097
#	89581
#	106951
#	123388
#	139031
#	161845
#	189498
#	205739
#	225808
#	242733
#	263555
#	283930
#	301768
#	314422
#	333184
#
# Disc length: 4699 seconds
#
# Revision: 0
# Processed by: cddbd v1.5.2PL0 Copyright (c) Steve Scherf et al.
# Submitted via: audiograbber 1.83.01
#
DISCID=11125913
DTITLE=Blue Rose - Blue Rose Nuggets 60
DYEAR=2013
DGENRE=Country Rock
TTITLE0=Skydiggers - Waves
TTITLE1=Whitehorse - Devil's Got A Gun
TTITLE2=Markus Rill and The Proublemakers - Free To Fly
TTITLE3=Shurman - Apartment 9 Blues
TTITLE4=Paul Thorn - Snake Farm
TTITLE5=Tom Gillam - Last Night On Earth
TTITLE6=Jenn Grant - Hollywood
TTITLE7=Lincoln Durham - Living This Hard
TTITLE8=Jim Cuddy - Skyscraper Soul
TTITLE9=The Resentments - Teach Me How To Stay
TTITLE10=Shooter Jennings - A Hard Lesson To Learn
TTITLE11=Wheeler Brothers - Home For The Holidays
TTITLE12=Todd Thibaud - Hollow
TTITLE13=Turnpike Troubadours - Gin Smoke and Lies
TTITLE14=Ad Vanderveen - Time Has Told
TTITLE15=The Departed - Prayer For The Lonely
TTITLE16=Amelia Curran - Blackbird On Fire
TTITLE17=Elliott Murphy - Angeline
TTITLE18=Uncle Lucius - Willing Wasted Time
EXTD=
EXTT0=
EXTT1=
EXTT2=
EXTT3=
EXTT4=
EXTT5=
EXTT6=
EXTT7=
EXTT8=
EXTT9=
EXTT10=
EXTT11=
EXTT12=
EXTT13=
EXTT14=
EXTT15=
EXTT16=
EXTT17=
EXTT18=
PLAYORDER=
